<svg width="1440" height="1100" viewBox="0 0 1440 1100" fill="none" xmlns="http://www.w3.org/2000/svg">
  <defs>
    <linearGradient id="bg" x1="120" y1="60" x2="1260" y2="1040" gradientUnits="userSpaceOnUse">
      <stop stop-color="#FFE8F4"/>
      <stop offset="1" stop-color="#DBEAFF"/>
    </linearGradient>
    <linearGradient id="card" x1="80" y1="80" x2="1280" y2="980" gradientUnits="userSpaceOnUse">
      <stop stop-color="rgba(255,255,255,0.88)"/>
      <stop offset="1" stop-color="rgba(255,255,255,0.58)"/>
    </linearGradient>
    <linearGradient id="accent" x1="0" y1="0" x2="1" y2="1">
      <stop stop-color="#F58CC8"/>
      <stop offset="1" stop-color="#8D8BF8"/>
    </linearGradient>
    <filter id="shadow" x="-20%" y="-20%" width="140%" height="140%">
      <feDropShadow dx="12" dy="18" stdDeviation="18" flood-color="#B9B0D7" flood-opacity="0.35"/>
    </filter>
  </defs>

  <rect width="1440" height="1100" fill="url(#bg)"/>
  <circle cx="1300" cy="120" r="120" fill="#FFC1DE" opacity="0.42"/>
  <circle cx="120" cy="960" r="110" fill="#A7E9FF" opacity="0.35"/>

  <rect x="68" y="52" width="1304" height="220" rx="34" fill="white" fill-opacity="0.45" filter="url(#shadow)"/>
  <rect x="88" y="76" width="760" height="172" rx="28" fill="url(#card)" fill-opacity="0.9"/>
  <text x="120" y="118" font-family="Segoe UI, Arial, sans-serif" font-size="18" fill="#8B7AA8" letter-spacing="2">WELLNESS DASHBOARD</text>
  <text x="120" y="166" font-family="Segoe UI, Arial, sans-serif" font-size="52" font-weight="700" fill="#5B4A73">Lucent</text>
  <text x="120" y="208" font-family="Segoe UI, Arial, sans-serif" font-size="24" fill="#6E6188">Track your cycle, symptoms, and gentle daily insights.</text>
  <rect x="120" y="220" width="420" height="28" rx="14" fill="white" fill-opacity="0.65"/>

  <g filter="url(#shadow)">
    <circle cx="1145" cy="164" r="86" fill="url(#accent)"/>
    <circle cx="1145" cy="164" r="58" fill="rgba(255,255,255,0.88)"/>
  </g>
  <text x="1094" y="154" font-family="Segoe UI, Arial, sans-serif" font-size="18" fill="#8B7AA8">Phase</text>
  <text x="1080" y="182" font-family="Segoe UI, Arial, sans-serif" font-size="28" font-weight="700" fill="#5B4A73">Follicular</text>
  <text x="1118" y="208" font-family="Segoe UI, Arial, sans-serif" font-size="16" fill="#8B7AA8">Day 9</text>

  <rect x="68" y="300" width="1304" height="736" rx="34" fill="white" fill-opacity="0.24"/>

  <rect x="88" y="324" width="1304" height="120" rx="30" fill="white" fill-opacity="0.46" filter="url(#shadow)"/>
  <g font-family="Segoe UI, Arial, sans-serif">
    <rect x="114" y="350" width="282" height="68" rx="22" fill="white" fill-opacity="0.72"/>
    <text x="136" y="377" font-size="16" fill="#8B7AA8">Next period</text>
    <text x="136" y="404" font-size="24" font-weight="700" fill="#5B4A73">May 12, 2026</text>

    <rect x="414" y="350" width="282" height="68" rx="22" fill="white" fill-opacity="0.72"/>
    <text x="436" y="377" font-size="16" fill="#8B7AA8">Ovulation</text>
    <text x="436" y="404" font-size="24" font-weight="700" fill="#5B4A73">Apr 28, 2026</text>

    <rect x="714" y="350" width="282" height="68" rx="22" fill="white" fill-opacity="0.72"/>
    <text x="736" y="377" font-size="16" fill="#8B7AA8">Fertile window</text>
    <text x="736" y="404" font-size="24" font-weight="700" fill="#5B4A73">Apr 23 - 29</text>

    <rect x="1014" y="350" width="332" height="68" rx="22" fill="white" fill-opacity="0.72"/>
    <text x="1036" y="377" font-size="16" fill="#8B7AA8">Cycle average</text>
    <text x="1036" y="404" font-size="24" font-weight="700" fill="#5B4A73">28 days</text>
  </g>

  <rect x="88" y="470" width="760" height="540" rx="30" fill="white" fill-opacity="0.52" filter="url(#shadow)"/>
  <text x="120" y="520" font-family="Segoe UI, Arial, sans-serif" font-size="18" fill="#8B7AA8" letter-spacing="2">CALENDAR TRACKER</text>
  <text x="120" y="558" font-family="Segoe UI, Arial, sans-serif" font-size="34" font-weight="700" fill="#5B4A73">Track your month</text>
  <rect x="598" y="515" width="200" height="42" rx="21" fill="white" fill-opacity="0.68"/>
  <text x="635" y="542" font-family="Segoe UI, Arial, sans-serif" font-size="21" font-weight="700" fill="#5B4A73">April 2026</text>

  <g font-family="Segoe UI, Arial, sans-serif" font-size="16" fill="#8B7AA8">
    <text x="124" y="610">Sun</text><text x="226" y="610">Mon</text><text x="330" y="610">Tue</text>
    <text x="432" y="610">Wed</text><text x="538" y="610">Thu</text><text x="640" y="610">Fri</text><text x="744" y="610">Sat</text>
  </g>

  <g font-family="Segoe UI, Arial, sans-serif" font-size="18" font-weight="700" fill="#5B4A73">
    <rect x="116" y="630" width="84" height="72" rx="24" fill="white" fill-opacity="0.75"/>
    <rect x="218" y="630" width="84" height="72" rx="24" fill="white" fill-opacity="0.75"/>
    <rect x="320" y="630" width="84" height="72" rx="24" fill="white" fill-opacity="0.75"/>
    <rect x="422" y="630" width="84" height="72" rx="24" fill="#FFD0DF"/>
    <rect x="524" y="630" width="84" height="72" rx="24" fill="#FFD0DF"/>
    <rect x="626" y="630" width="84" height="72" rx="24" fill="#FFD0DF"/>
    <rect x="728" y="630" width="84" height="72" rx="24" fill="white" fill-opacity="0.75"/>

    <rect x="116" y="720" width="84" height="72" rx="24" fill="white" fill-opacity="0.75"/>
    <rect x="218" y="720" width="84" height="72" rx="24" fill="white" fill-opacity="0.75"/>
    <rect x="320" y="720" width="84" height="72" rx="24" fill="#B4F0DD"/>
    <rect x="422" y="720" width="84" height="72" rx="24" fill="#8D8BF8"/>
    <rect x="524" y="720" width="84" height="72" rx="24" fill="#B4F0DD"/>
    <rect x="626" y="720" width="84" height="72" rx="24" fill="#DCC8FF"/>
    <rect x="728" y="720" width="84" height="72" rx="24" fill="#DCC8FF"/>

    <text x="148" y="674">1</text><text x="250" y="674">2</text><text x="352" y="674">3</text>
    <text x="454" y="674">4</text><text x="556" y="674">5</text><text x="658" y="674">6</text><text x="760" y="674">7</text>
    <text x="148" y="764">8</text><text x="246" y="764">9</text><text x="344" y="764">10</text>
    <text x="446" y="764" fill="white">11</text><text x="546" y="764">12</text><text x="648" y="764">13</text><text x="750" y="764">14</text>
  </g>

  <rect x="878" y="470" width="494" height="250" rx="30" fill="white" fill-opacity="0.52" filter="url(#shadow)"/>
  <text x="910" y="520" font-family="Segoe UI, Arial, sans-serif" font-size="18" fill="#8B7AA8" letter-spacing="2">SYMPTOM TRACKER</text>
  <text x="910" y="558" font-family="Segoe UI, Arial, sans-serif" font-size="34" font-weight="700" fill="#5B4A73">Log how you feel</text>
  <rect x="910" y="588" width="188" height="52" rx="20" fill="white" fill-opacity="0.72"/>
  <text x="938" y="620" font-family="Segoe UI, Arial, sans-serif" font-size="20" fill="#5B4A73">2026-04-24</text>
  <g font-family="Segoe UI, Arial, sans-serif" font-size="19" font-weight="700" fill="#5B4A73">
    <rect x="910" y="658" width="210" height="52" rx="22" fill="#FFDCE9"/>
    <text x="950" y="691">💢 Cramps</text>
    <rect x="1138" y="658" width="210" height="52" rx="22" fill="white" fill-opacity="0.72"/>
    <text x="1176" y="691">🤕 Headache</text>
  </g>

  <rect x="878" y="744" width="494" height="266" rx="30" fill="white" fill-opacity="0.52" filter="url(#shadow)"/>
  <text x="910" y="792" font-family="Segoe UI, Arial, sans-serif" font-size="18" fill="#8B7AA8" letter-spacing="2">RELIEF + INSIGHTS</text>
  <text x="910" y="828" font-family="Segoe UI, Arial, sans-serif" font-size="30" font-weight="700" fill="#5B4A73">Suggestions for today</text>
  <rect x="910" y="854" width="210" height="124" rx="24" fill="white" fill-opacity="0.72"/>
  <rect x="1138" y="854" width="210" height="124" rx="24" fill="white" fill-opacity="0.72"/>
  <text x="934" y="888" font-family="Segoe UI, Arial, sans-serif" font-size="18" font-weight="700" fill="#5B4A73">Movement</text>
  <text x="934" y="915" font-family="Segoe UI, Arial, sans-serif" font-size="15" fill="#6E6188">Gentle walks,</text>
  <text x="934" y="938" font-family="Segoe UI, Arial, sans-serif" font-size="15" fill="#6E6188">stretching, or</text>
  <text x="934" y="961" font-family="Segoe UI, Arial, sans-serif" font-size="15" fill="#6E6188">light Pilates.</text>

  <text x="1162" y="888" font-family="Segoe UI, Arial, sans-serif" font-size="18" font-weight="700" fill="#5B4A73">Nourishment</text>
  <text x="1162" y="915" font-family="Segoe UI, Arial, sans-serif" font-size="15" fill="#6E6188">Hydration,</text>
  <text x="1162" y="938" font-family="Segoe UI, Arial, sans-serif" font-size="15" fill="#6E6188">iron-rich foods,</text>
  <text x="1162" y="961" font-family="Segoe UI, Arial, sans-serif" font-size="15" fill="#6E6188">and easy meals.</text>
</svg>
